<?xml version="1.0" standalone="no"?><!DOCTYPE svg PUBLIC "-//W3C//DTD SVG 1.1//EN" "http://www.w3.org/Graphics/SVG/1.1/DTD/svg11.dtd"><svg t="1620372007197" class="icon" viewBox="0 0 1024 1024" version="1.1" xmlns="http://www.w3.org/2000/svg" p-id="13901" xmlns:xlink="http://www.w3.org/1999/xlink" width="64" height="64"><defs><style type="text/css"></style></defs><path d="M0 0h1024v1024H0V0z" fill="#F7DF1E" p-id="13902"></path><path d="M269.248 855.728l78.36-47.424c15.12 26.804 28.872 49.484 61.86 49.484 31.62 0 51.56-12.368 51.56-60.48v-327.192h96.228v328.552c0 99.668-58.424 145.036-143.664 145.036-76.98 0-121.664-39.868-144.348-87.984M609.524 845.416l78.352-45.364c20.628 33.684 47.436 58.428 94.86 58.428 39.876 0 65.3-19.936 65.3-47.432 0-32.992-26.12-44.68-70.112-63.92l-24.052-10.32c-69.428-29.548-115.48-66.668-115.48-145.028 0-72.176 54.988-127.168 140.912-127.168 61.176 0 105.168 21.312 136.784 76.988L841.16 589.72c-16.5-29.556-34.364-41.24-61.86-41.24-28.184 0-46.056 17.872-46.056 41.24 0 28.868 17.872 40.56 59.112 58.432l24.056 10.308c81.8 35.06 127.852 70.8 127.852 151.216 0 86.616-68.048 134.04-159.468 134.04-89.356 0-147.096-42.616-175.276-98.296" p-id="13903"></path></svg>