<?xml version="1.0" standalone="no"?><!DOCTYPE svg PUBLIC "-//W3C//DTD SVG 1.1//EN" "http://www.w3.org/Graphics/SVG/1.1/DTD/svg11.dtd"><svg t="1620372195820" class="icon" viewBox="0 0 1024 1024" version="1.1" xmlns="http://www.w3.org/2000/svg" p-id="23977" xmlns:xlink="http://www.w3.org/1999/xlink" width="64" height="64"><defs><style type="text/css"></style></defs><path d="M299.104 435.488H258.816l-21.984 112.992h35.744c23.712 0 41.376-4.48 52.992-13.408 11.616-8.96 19.424-23.84 23.456-44.768 3.936-20.064 2.144-34.208-5.28-42.464-7.456-8.224-22.304-12.384-44.672-12.384zM512 242.688C229.248 242.688 0 363.264 0 512s229.248 269.344 512 269.344S1024 660.736 1024 512s-229.248-269.312-512-269.312z m-139.104 317.92a103.872 103.872 0 0 1-39.136 23.52c-14.336 4.608-32.64 7.008-54.816 7.008H228.544l-13.952 71.712H155.808l52.48-269.92h113.056c34.016 0 58.784 8.928 74.4 26.784 15.616 17.824 20.32 42.752 14.08 74.752a121.568 121.568 0 0 1-13.312 36.736l0.32-0.608c-6.112 10.88-14.08 20.896-23.936 29.984z m171.712 30.496l23.168-119.424c2.688-13.568 1.664-22.88-2.912-27.776-4.576-4.96-14.336-7.424-29.312-7.424H488.96l-30.048 154.656h-58.368l52.48-269.952h58.336l-13.952 71.776h51.968c32.736 0 55.264 5.728 67.68 17.12s16.128 29.856 11.232 55.424l-24.416 125.6h-59.264z m324.128-96.64c-2.56 13.6-7.072 25.696-13.312 36.736l0.32-0.576c-6.112 10.88-14.08 20.896-23.936 29.984a103.904 103.904 0 0 1-38.4 23.296l-0.736 0.224c-14.336 4.608-32.64 7.008-54.88 7.008h-50.336l-13.952 71.776H614.72l52.48-269.92h113.024c34.016 0 58.784 8.928 74.4 26.784 15.616 17.792 20.352 42.72 14.112 74.72z m-110.72-58.976h-40.224l-22.016 112.992h35.744c23.776 0 41.44-4.48 52.992-13.408 11.616-8.96 19.424-23.84 23.52-44.768 3.936-20.064 2.08-34.208-5.344-42.464s-22.368-12.384-44.672-12.384z" fill="#777BB4" p-id="23978"></path></svg>